# xmcd
#
# Track frame offsets: 
#        150
#        10270
#        23473
#        35513
#        48428
#        59368
#        72793
#        82710
#        94478
#        105863
#        116453
#        128663
#        139610
#        156013
#        169148
#        187115
#        200790
#        216900
#        230233
#        243980
#        259933
#        280548
#        298700
#
# Disc length: 4177 seconds
#
# Revision: 2
# Processed by: cddbd v1.5.2PL0 Copyright (c) Steve Scherf et al.
# Submitted via: ExactAudioCopy v0.95b4
#
DISCID=43104f17
DTITLE=Hooker, John Lee  - The Vee-Jay Years - CD 3
DYEAR=1900
DGENRE=Blues
TTITLE0=I wanna walk
TTITLE1=Canal Street blues
TTITLE2=I'll know tonight
TTITLE3=I can't believe
TTITLE4=Goin' to California
TTITLE5=Whiskey and wimmen
TTITLE6=Run on
TTITLE7=Solid sender
TTITLE8=Sunny land
TTITLE9=Dusty road
TTITLE10=I'm a stranger
TTITLE11=No shoes
TTITLE12=Five long years
TTITLE13=I like to see you walk
TTITLE14=Wednesday evening
TTITLE15=Take me as I am
TTITLE16=My first wife left me
TTITLE17=You're looking good tonight
TTITLE18=You're gonna miss me when I'm gone
TTITLE19=Dirty ground hog
TTITLE20=She loves my best friend
TTITLE21=Sally Mae
TTITLE22=Moanin' blues
EXTD=
EXTT0=
EXTT1=
EXTT2=
EXTT3=
EXTT4=
EXTT5=
EXTT6=
EXTT7=
EXTT8=
EXTT9=
EXTT10=
EXTT11=
EXTT12=
EXTT13=
EXTT14=
EXTT15=
EXTT16=
EXTT17=
EXTT18=
EXTT19=
EXTT20=
EXTT21=
EXTT22=
PLAYORDER=
